<svg width="555" height="555" viewBox="0 0 555 555" fill="none" xmlns="http://www.w3.org/2000/svg"><g clip-path="url(#clip0_2898379)"><path fill-rule="evenodd" clip-rule="evenodd" d="M57.2 207.7c-3.2 21.2-2.7 40.9.7 54-.2-15.3 1-33.5 3.9-52.8 2.9-19.3 6.9-36.7 11.5-50.7-6.8 10.4-12.9 28.3-16.1 49.5z" fill="url(#paint0_linear_2898379)"/><path fill-rule="evenodd" clip-rule="evenodd" d="M62.7 237.1c-3.8 9.6-5.3 18.6-4.4 24.5 1.2-6.9 3.6-15.2 7.1-24 3.5-8.7 7.5-16.7 11.6-23-5.2 4.8-10.5 12.9-14.3 22.5z" fill="url(#paint1_linear_2898379)"/><path fill-rule="evenodd" clip-rule="evenodd" d="M51.4 254.7c-.4-2 .9-4 3-4.4 2-.4 4 .9 4.4 3 .2.8.1 1.6 0 2.7-.3 3.3-1 11.5 7.1 14.1 13.8 4.5 14.9 10.9 14.9 12.5v50.2c0 2.1-1.7 3.8-3.8 3.8-2.1 0-3.8-1.7-3.8-3.8v-50.6s.3-1.7-9.7-5c-13.7-4.5-12.7-16.9-12.3-21.9.1-.5.2-.4.2-.6z" fill="url(#paint2_radial_2898379)"/><path fill-rule="evenodd" clip-rule="evenodd" d="M95.2 238.7c.3-2 2.3-3.4 4.3-3.1 2 .3 3.4 2.3 3.1 4.3 0 .1.1.4.1 1.1.4 5.7 1.4 19.9-12.1 25.1-10.3 3.9-9.9 6.8-9.9 6.8v59.8c0 2.1-1.7 3.8-3.8 3.8-2.1 0-3.8-1.7-3.8-3.8v-59.5c0-1.6.9-8.8 14.7-14.1 8.3-3.2 7.6-13.4 7.3-17.6.1-1.2 0-2 .1-2.8z" fill="url(#paint3_radial_2898379)"/><path fill-rule="evenodd" clip-rule="evenodd" d="M78.8 239.2c.1-2.1 1.8-3.7 3.9-3.6 2.1.1 3.7 1.8 3.6 3.9v1.7c.1 5.3.3 18.3-3.1 23.5-2.6 4-2.5 8.5-2.5 8.6v59.5c0 2.1-1.7 3.8-3.8 3.8-2.1 0-3.8-1.7-3.8-3.8v-59.5s-.2-6.7 3.8-12.7c2.1-3.2 1.9-14.6 1.8-19.2.1-1.1.1-1.9.1-2.2z" fill="url(#paint4_radial_2898379)"/><path fill-rule="evenodd" clip-rule="evenodd" d="M40 207.7c8.3 21.2 12.5 40.9 12.3 54-3.5-15.3-9.1-33.5-16.6-52.8-7.5-19.3-15.8-36.7-23.7-50.7 9.3 10.4 19.7 28.3 28 49.5z" fill="url(#paint5_linear_2898379)"/><path fill-rule="evenodd" clip-rule="evenodd" d="M58.8 207.7c-3.8 21.2-3.9 40.9-.9 54 .2-15.3 2-33.5 5.5-52.8 3.4-19.3 8-36.7 13-50.7-7.2 10.4-13.8 28.3-17.6 49.5z" fill="url(#paint6_linear_2898379)"/><path fill-rule="evenodd" clip-rule="evenodd" d="M52.2 199.9c-1.2 24.2 1.1 46.8 5.7 61.7-1.6-17.4-2.1-38.3-1-60.3s3.5-42 6.8-57.9c-5.9 11.8-10.3 32.3-11.5 56.5z" fill="url(#paint7_linear_2898379)"/><path fill-rule="evenodd" clip-rule="evenodd" d="M46.3 199.9c6.3 24.2 8.8 46.8 7.4 61.7-2.1-17.4-6-38.3-11.8-60.3-5.7-22-12.4-42-19.1-57.9 8.4 11.8 17.1 32.3 23.5 56.5z" fill="url(#paint8_linear_2898379)"/><path fill-rule="evenodd" clip-rule="evenodd" d="M40.9 199.9c8.4 24.2 12.8 46.8 12.7 61.7-3.6-17.4-9.3-38.3-17-60.3-7.6-22-16-42-24.1-57.9 9.5 11.8 20 32.3 28.4 56.5z" fill="url(#paint9_linear_2898379)"/><path fill-rule="evenodd" clip-rule="evenodd" d="M51.5 190.4c4.3 28 4.8 54 2.1 71.3-.6-20.1-2.8-44.2-6.7-69.6-3.9-25.4-8.9-48.5-14.2-66.9 7.5 13.6 14.5 37.2 18.8 65.2z" fill="url(#paint10_linear_2898379)"/><path fill-rule="evenodd" clip-rule="evenodd" d="M50.4 190.4c-1 28 1.5 54 6.2 71.3-1.8-20.1-2.4-44.2-1.4-69.6.9-25.4 3.2-48.5 6.4-66.9-5.9 13.6-10.2 37.2-11.2 65.2z" fill="url(#paint11_linear_2898379)"/><path fill-rule="evenodd" clip-rule="evenodd" d="M73.2 198.6c6 21.2 8.2 40.9 6.6 54-1.8-15.3-5.6-33.5-11-52.7-5.5-19.3-11.9-36.7-18.4-50.7 8.3 10.3 16.8 28.2 22.8 49.4z" fill="url(#paint12_linear_2898379)"/><path fill-rule="evenodd" clip-rule="evenodd" d="M92 198.6c-6 21.2-8.2 40.9-6.6 54 1.8-15.3 5.6-33.5 11-52.7 5.5-19.3 11.9-36.7 18.4-50.7-8.3 10.3-16.8 28.2-22.8 49.4z" fill="url(#paint13_linear_2898379)"/><path fill-rule="evenodd" clip-rule="evenodd" d="M86.2 190.9c-3.8 24.2-3.8 46.8-.8 61.7.2-17.4 2-38.3 5.4-60.3 3.4-22 8-42 12.9-57.9-7.1 11.8-13.7 32.2-17.5 56.5z" fill="url(#paint14_linear_2898379)"/><path fill-rule="evenodd" clip-rule="evenodd" d="M80.3 190.9c3.8 24.2 3.8 46.8.8 61.7-.2-17.4-2-38.3-5.4-60.3-3.4-22-8-42-12.9-57.9 7.1 11.8 13.7 32.2 17.5 56.5z" fill="url(#paint15_linear_2898379)"/><path fill-rule="evenodd" clip-rule="evenodd" d="M75 190.9c5.9 24.2 7.9 46.8 6.2 61.7-1.7-17.4-5.3-38.3-10.6-60.3s-11.6-42-18-57.9c8.1 11.8 16.5 32.2 22.4 56.5z" fill="url(#paint16_linear_2898379)"/><path fill-rule="evenodd" clip-rule="evenodd" d="M86.5 181.3c1.3 28-.9 54-5.4 71.3 1.5-20.1 1.9-44.2.7-69.6-1.2-25.4-3.7-48.5-7.1-66.9 6 13.6 10.5 37.3 11.8 65.2z" fill="url(#paint17_linear_2898379)"/><path fill-rule="evenodd" clip-rule="evenodd" d="M85.4 181.3c-4 28-4.2 54-1.4 71.3.4-20.1 2.3-44.2 5.9-69.6 3.6-25.4 8.3-48.5 13.4-66.9-7.1 13.6-13.9 37.3-17.9 65.2z" fill="url(#paint18_linear_2898379)"/><path fill-rule="evenodd" clip-rule="evenodd" d="M112.7 198.6c-7.7 21.2-11.5 40.9-11 54 3.1-15.3 8.3-33.5 15.3-52.7 7-19.3 14.9-36.7 22.5-50.7-9.1 10.3-19 28.2-26.8 49.4z" fill="url(#paint19_linear_2898379)"/><path fill-rule="evenodd" clip-rule="evenodd" d="M93.9 198.6c4.3 21.2 4.9 40.9 2.2 54-.6-15.3-2.8-33.5-6.8-52.7-3.9-19.3-8.9-36.7-14.2-50.7 7.5 10.3 14.5 28.2 18.8 49.4z" fill="url(#paint20_linear_2898379)"/><path fill-rule="evenodd" clip-rule="evenodd" d="M100.3 190.9c1.8 24.2 0 46.8-4.2 61.7 1.2-17.4 1.1-38.3-.5-60.3s-4.6-42-8.2-57.9c6.2 11.8 11.1 32.2 12.9 56.5z" fill="url(#paint21_linear_2898379)"/><path fill-rule="evenodd" clip-rule="evenodd" d="M106.2 190.9c-5.7 24.2-7.6 46.8-5.9 61.7 1.6-17.4 5.1-38.3 10.3-60.3 5.2-22 11.4-42 17.6-57.9-8 11.8-16.2 32.2-22 56.5z" fill="url(#paint22_linear_2898379)"/><path fill-rule="evenodd" clip-rule="evenodd" d="M111.6 190.9c-7.8 24.2-11.7 46.8-11.2 61.7 3.1-17.4 8.4-38.3 15.5-60.3s15-42 22.7-57.9c-9.2 11.8-19.2 32.2-27 56.5z" fill="url(#paint23_linear_2898379)"/><path fill-rule="evenodd" clip-rule="evenodd" d="M100.8 181.3c-3.6 28-3.5 54-.4 71.3.1-20.1 1.7-44.2 5-69.6 3.3-25.4 7.7-48.5 12.5-66.9-7.1 13.6-13.5 37.3-17.1 65.2z" fill="url(#paint24_linear_2898379)"/><path fill-rule="evenodd" clip-rule="evenodd" d="M101.9 181.3c1.7 28-.2 54-4.4 71.3 1.3-20.1 1.3-44.2-.3-69.6-1.5-25.4-4.4-48.5-8-66.9 6.1 13.6 11 37.3 12.7 65.2z" fill="url(#paint25_linear_2898379)"/><path fill-rule="evenodd" clip-rule="evenodd" d="M115 207.4c-8.1 17.7-12.8 34.2-13.3 45.2 3.7-12.8 9.5-28 16.8-44.1 7.4-16.1 15.3-30.7 22.7-42.4-8.4 8.6-18.1 23.6-26.2 41.3z" fill="url(#paint26_linear_2898379)"/><path fill-rule="evenodd" clip-rule="evenodd" d="M37.8 216.9c8.6 17.6 13.7 33.9 14.6 44.8-4.1-12.6-10.2-27.8-18-43.7-7.8-16-16-30.4-23.7-42 8.4 8.5 18.5 23.3 27.1 40.9z" fill="url(#paint27_linear_2898379)"/><path fill-rule="evenodd" clip-rule="evenodd" d="M39.8 228c7 13.2 11.4 25.5 12.5 33.7-3.5-9.5-8.7-20.9-15.1-32.9s-13.1-22.9-19.3-31.6c6.8 6.4 14.9 17.6 21.9 30.8z" fill="url(#paint28_linear_2898379)"/><path fill-rule="evenodd" clip-rule="evenodd" d="M115.7 218.9c-7.8 12.8-12.7 25.2-14 33.7 3.9-9.5 9.6-20.7 16.7-32.4s14.5-22.1 21.2-30.2c-7.3 5.6-16.2 16-23.9 28.9z" fill="url(#paint29_linear_2898379)"/><path fill-rule="evenodd" clip-rule="evenodd" d="M120 218.7c-10.2 12.9-16.7 25.3-18.3 33.9 5.2-9.6 12.6-20.8 21.9-32.6 9.3-11.7 19-22.2 27.9-30.3-9.6 5.6-21.3 16.1-31.5 29z" fill="url(#paint30_linear_2898379)"/><path fill-rule="evenodd" clip-rule="evenodd" d="M35.2 226.9c9.6 13.7 15.7 26.4 17.1 34.8-4.8-9.8-11.8-21.6-20.6-34C23 215.3 13.8 204 5.3 195c9.2 6.7 20.3 18.2 29.9 31.9z" fill="url(#paint31_linear_2898379)"/><path fill-rule="evenodd" clip-rule="evenodd" d="M62.7 228.5c-3.8 13-5.3 25.1-4.4 33.2 1.2-9.4 3.6-20.6 7.1-32.4 3.5-11.8 7.5-22.6 11.6-31.1-5.2 6.3-10.5 17.3-14.3 30.3z" fill="url(#paint32_linear_2898379)"/><path fill-rule="evenodd" clip-rule="evenodd" d="M39.8 243.3c7 7.2 11.4 13.9 12.5 18.3-3.5-5.2-8.7-11.4-15.1-17.9-6.4-6.5-13.1-12.5-19.3-17.2 6.8 3.5 14.9 9.6 21.9 16.8z" fill="url(#paint33_linear_2898379)"/><path fill-rule="evenodd" clip-rule="evenodd" d="M119.2 234.3c-9.7 7-15.9 13.7-17.4 18.3 4.9-5.2 12-11.3 20.9-17.6 8.8-6.3 18.1-12 26.6-16.4-9.3 3.1-20.4 8.7-30.1 15.7z" fill="url(#paint34_linear_2898379)"/><path fill-rule="evenodd" clip-rule="evenodd" d="M38.1 247.6c8 5.5 13 10.6 14.2 14.1-4-4-9.8-8.7-17.1-13.7-7.3-5-14.9-9.6-21.9-13.2 7.6 2.6 16.8 7.3 24.8 12.8z" fill="url(#paint35_linear_2898379)"/><path fill-rule="evenodd" clip-rule="evenodd" d="M57.9 222.7c-2.7 15.3-2.8 29.5-.7 39 .2-11 1.5-24.2 3.9-38.1 2.5-13.9 5.8-26.5 9.4-36.6-5 7.5-9.8 20.4-12.6 35.7z" fill="url(#paint36_linear_2898379)"/><path d="M362.6 389.1c102.725 0 186-83.275 186-186s-83.275-186-186-186-186 83.275-186 186 83.275 186 186 186z" fill="url(#paint38_linear_2898379)"/><path d="M362.6 382.5c99.08 0 179.4-80.32 179.4-179.4 0-99.08-80.32-179.4-179.4-179.4-99.08 0-179.4 80.32-179.4 179.4 0 99.08 80.32 179.4 179.4 179.4z" fill="url(#paint39_linear_2898379)"/><path d="M337.8 296.2l-36.1-167.7c-1-4.8 3.9-8.6 8.3-6.4l123.4 61.2c3.4 1.7 4.3 6 1.9 8.9L348 298.6c-3.1 3.8-9.2 2.3-10.2-2.4z" fill="url(#paint40_linear_2898379)"/><path d="M337.8 296.2l-36.1-167.7c-1-4.8 3.9-8.6 8.3-6.4l123.4 61.2c3.4 1.7 4.3 6 1.9 8.9L348 298.6c-3.1 3.8-9.2 2.3-10.2-2.4z" stroke="#F86E80" stroke-width="2.444" stroke-miterlimit="10"/><ellipse cx="285.318" cy="497.061" rx="151" ry="25.081" transform="rotate(.752 285.318 497.061)" fill="url(#paint41_radial_2898379)"/><ellipse cx="369.317" cy="493.061" rx="151" ry="25.081" transform="rotate(-4.883 369.317 493.061)" fill="url(#paint42_radial_2898379)"/><ellipse cx="400.587" cy="480.842" rx="151" ry="25.081" transform="rotate(-4.883 400.587 480.842)" fill="url(#paint43_radial_2898379)"/><ellipse cx="341.999" cy="518.01" rx="143.223" ry="43.383" transform="rotate(2.533 341.999 518.01)" fill="url(#paint44_radial_2898379)"/></g><path opacity=".41" d="M314.118 285.09s-2.4 45.09-2.59 45.62c-1.42 4-.8 9.48-.8 9.48l2.78-7.71.61-47.39z" fill="#FF527A"/><path d="M402.68 321.08s-125.5-21.84-145.74-34c-37.91-22.93-48.91-115.78-102.83-115.78-49.17 0-52.94 30.66-64.52 70.16-11.58 39.5-56.68 101.41-49.89 153.17a151.143 151.143 0 0028.59 70.67 33.472 33.472 0 0020.34 12.71c17.29 3.36 52.52 9.75 94.64 14.81 62.79 7.53 140.87 12.09 197.61-.79 111-25.2 122.58-38.82 114.41-97.38-8.17-58.56-74.91-70.85-92.61-73.57z" fill="url(#paint45_linear_2898379)"/><path d="M215.589 260.86s-59.71-90.8-76.87-88.39a52.539 52.539 0 0140.59 6.76c7.25 4.61 14.39 12.26 21 22.33 16.52 25.11 41.77 76.23 46.75 79.13 4.98 2.9-19.35-2.05-31.47-19.83z" fill="url(#paint46_linear_2898379)"/><path d="M164.97 273.97c2.48.36-23.27 73.19 103.22 86.72 44.34 4.74 102.7 1.75 108.84 11.91 6.14 10.16 24.57 13.15 18.36 22.61-6.21 9.46-1.35 25.77-22.09 29.39-20.74 3.62-133.82 7.54-174.47-9.49" fill="url(#paint47_linear_2898379)"/><path d="M234.648 440.3s42 4.44 53.48-.08c11.48-4.52-61.05-12.44-61.05-12.44l7.57 12.52z" fill="url(#paint48_radial_2898379)"/><path d="M186.07 289.3s30.53 41.7 53.89 52.56 55.16 18.76 74.58 25.72c19.42 6.96-23.22 37.36-51.42 31.17-28.2-6.19-69.88-15.8-80.42-36.41-10.54-20.61 3.37-73.04 3.37-73.04z" fill="url(#paint49_linear_2898379)"/><path d="M384.381 295.22s1.58.27 2.6 4.59 2.76 9.66 1.29 9.72c-1.47.06-5.74-7.37-5.74-7.37l1.85-6.94z" fill="url(#paint50_linear_2898379)"/><path d="M418.98 266.61l-6.52 33.95a1.997 1.997 0 01-2.09 1.6l-12.46-.94a1.998 1.998 0 01-1.83-1.9l-1.35-34.54 24.25 1.83z" fill="url(#paint51_linear_2898379)"/><path d="M418.958 266.74l-2.13-4.77-19.27-1.45-2.82 4.39 24.22 1.83z" fill="url(#paint52_linear_2898379)"/><path d="M405.491 289.74a5.94 5.94 0 10-.001-11.881 5.94 5.94 0 00.001 11.881z" fill="url(#paint53_linear_2898379)"/><path d="M394.58 266.589l24.251 1.827a.69.69 0 00.74-.636l.055-.728a.69.69 0 00-.636-.74l-24.251-1.827a.69.69 0 00-.74.636l-.055.728a.69.69 0 00.636.74z" fill="url(#paint54_linear_2898379)"/><path d="M395.789 291.37s2.61-5.6 2.33-7.92c-.28-2.32 0-4.53-1.63-4.64-1.63-.11-1.42 1.11-1.75 3.19-.33 2.08-2.65 4.09-3.48 7.08-.5 1.816-1.17 3.58-2 5.27l-11.7 5.19 6.17 11.64s11.37-8.61 12.8-9.29l1.44-.67a1.892 1.892 0 01-1.83-1.9c-.15-1.86-.35-7.95-.35-7.95z" fill="url(#paint55_linear_2898379)"/><path d="M418.429 285.41c0 1-1.13 1.77-4 1.77s-4.55-.8-4.55-1.77 1.63-1.78 4.55-1.78 4 .8 4 1.78z" fill="url(#paint56_linear_2898379)"/><path d="M417.339 294.14c-.37 1.11-1.77 1.65-4.62.7s-4.14-2.38-3.77-3.49c.37-1.11 2.26-1.48 5.11-.54 2.85.94 3.65 2.22 3.28 3.33z" fill="url(#paint57_linear_2898379)"/><path d="M415.909 297.65c-.31.93-1.51 1.36-4 .54-2.49-.82-3.59-2-3.28-3 .31-1 1.93-1.22 4.4-.4 2.47.82 3.21 1.93 2.88 2.86z" fill="url(#paint58_linear_2898379)"/><path d="M316.5 187.5s1.69-.346 5.92 13.604c3.88 12.77 4.58 36.92 7.46 45.11a2.751 2.751 0 01-1.27 3.31c-3.74 2-12.53 4.78-27.55-1.25l-7-.52-5.06-20.36 16-14.39 11.5-25.504z" fill="url(#paint59_linear_2898379)"/><path d="M395.319 493.92a10.843 10.843 0 01-5.17 7.05c-5.12 3-13.31 7.23-14.72 5-2.08-3.23 8.54-16.25 10.66-15.61 2.12.64 9.23 3.53 9.23 3.53v.03z" fill="url(#paint60_linear_2898379)"/><path d="M322.531 247.01s9.32-5.3 20.2 39.16c2.52 10.31 10.6 25.61 10.6 25.61l31.05-16.56.11 1.32a33.641 33.641 0 003.78 13c-1.44 2-19.85 16.24-32.29 23.78-6.87 4.17-15-1.74-18.11-4.66-5.94-5.53-8.23-10.31-10.65-13.63-3.68-5.08-4.69-68.02-4.69-68.02z" fill="url(#paint61_linear_2898379)"/><path d="M397.882 470.81l-2.57 25.85-18.3-7.81 11.64-22.29 9.23 4.25z" fill="url(#paint62_linear_2898379)"/><path d="M390.128 490.39s10.19 12.82 14 15.29c0 0-12.93 5-15.69 10.49l-11.45-12.76 13.14-13.02z" fill="url(#paint63_linear_2898379)"/><path d="M275.478 252.53s-13.7 3.42-16.26 20.54c-1.52 10.08-2.57 54.79-2.57 54.79l-12 47.93 15.41 6 18.85-52.22 1.72-53.07-5.15-23.97z" fill="url(#paint64_linear_2898379)"/><path d="M336.3 344.98s43 17.78 60.51 30.63c5.3 3.9 6.42 7.52 6.9 9.6 2.07 9-5 92.44-5 92.44l-18-3.42-7.66-75.45c-6.21-3.45-32.08-8.66-32.08-8.66l-21.4-30.38 16.73-14.76z" fill="url(#paint65_linear_2898379)"/><path d="M375.431 506s4.48-11.23 19.89-12.08c0 0-30.8-81.66-33.56-87.88-2.76-6.22-42.13-46.3-42.13-46.3l-42.82-9s-2.38 33.1 2.1 39.56c9.64 14 50.87 30.74 50.87 30.74s13.77 35.65 45.65 84.96z" fill="url(#paint66_linear_2898379)"/><path d="M386.09 516.44s2.41-15.88 15.7-14.5c0 0 17.44 13.12 23 15.19 5.56 2.07 9.94 9.46-3.93 19.73-5.47 4-17.47 8.57-23-1.78a161.802 161.802 0 00-11.77-18.64z" fill="url(#paint67_linear_2898379)"/><path d="M342.73 347.71s-10.93 4.72-27.88 15.21c-13.34 8.25-29 10.92-41.08 2.47 0 0 5.13-62.48 5.13-84.11l-3.42-28.75s35.29-8 49.65-5.14c4.28.86 6.81 39.25 8.19 64.1 1.38 24.85 9.41 36.22 9.41 36.22z" fill="url(#paint68_linear_2898379)"/><path opacity=".41" d="M278.049 289.3s-2.24 42-2.42 42.51c-1.32 3.78-.74 8.85-.74 8.85l2.59-7.19.57-44.17z" fill="#FF527A"/><path d="M308.249 236.11c-.42-4.5-4.59-4.41-8.46-3.32-3.95-.67-11.94-9.18-10.89.93 1.06 10.32-.36 15.27-.36 15.27 4 3.34 10.651 4.03 15.961 3.51 5.34-.06 6.459-1.36 6.309-4.09 0 0-1.77-3.75-2.56-12.3z" fill="url(#paint69_linear_2898379)"/><path d="M305.499 252.53l-3.1 9s-20.49-9.23-17.29-13.76c2.45-3.44 3.88-3.51 3.88-3.51s-.71 3.29 2 4.84c5.16 2.95 14.51 3.43 14.51 3.43z" fill="url(#paint70_linear_2898379)"/><path d="M305.5 252.53l5.07 7.16s5.84-6.3 3.36-10-3.74-4.3-3.74-4.3.65 3.38-.82 4.92a11.734 11.734 0 01-3.87 2.22z" fill="url(#paint71_linear_2898379)"/><path d="M314.821 189.43s5.75 1.64 5 20-1.49 31-12.1 30.53c-10.61-.47-24.58-11-24.58-11s-2.41-15.63 7.83-22c10.24-6.37 20.94-18.66 23.85-17.53z" fill="url(#paint72_linear_2898379)"/><path d="M314.636 192.507c-.768.751-8.68 14.353-21.3 18.548-12.621 4.195 4.304 29.436 6.769 37.421 2.719 8.805-35.223-1.47-36.375-3.07-1.152-1.599-5.881-36.078 7.75-55.969 10.69-15.586 34.203-8.706 45.52-1.786l-2.364 4.856z" fill="url(#paint73_linear_2898379)"/><path d="M284.23 489.88v16.13l21.26-3.36-1.45-12.26-19.81-.51z" fill="url(#paint74_linear_2898379)"/><path d="M198.83 374.57a265.237 265.237 0 0046.83.92c25.71-1.84 41.32-2.76 45 0 13.78 10.33 16.81 25.7 17.45 51.42.64 25.72-2.83 66-2.83 66s-14.53-3.76-21.55 4.55c-.84 1-8.56-84.44-8.56-84.44l-71.39-17.32L188 379.92l10.83-5.35z" fill="url(#paint75_linear_2898379)"/><path d="M193.401 378.97s76.47 9.16 87.64 21.87c26.14 29.75 71.14 100.46 71.14 100.46s-7.88 1.27-13.78 16.53c0 0-74.82-75.83-79.32-78.4-4.5-2.57-89.31-24.52-99-26.25-32.93-5.88-25.53-23.88-25.53-23.88l58.85-10.33z" fill="url(#paint76_linear_2898379)"/><path d="M350.691 501.06s-12.61-5.91-16 15.14c0 0 8.05 25.56 9.68 27.49 1.63 1.93 29.54-14.65 28.92-17.39-.62-2.74-20.91-25.24-20.91-25.24" fill="url(#paint77_linear_2898379)"/><path d="M248.46 298.42s.67-2.9-2-7.49-6.08-8.77-8.9-8.11c-2.82.66 5 14.39 10.38 15.84.19.06.52-.24.52-.24z" fill="#E0DEDB"/><path d="M235.91 286.3s3.76-4.62 4.68-7.25c.92-2.63-1-13.24-1.39-13.55-.39-.31 1.44-1.68 3.43.91 1.99 2.59 4.46 9.57 5.12 9.31a7.424 7.424 0 001.7-1.21l-3.79 9.79c1.75 1.67 5.05 4.74 4.27 5.53-1.14 1.16-3.79 8.82-3.79 8.82l-6-6.1.48-1.16a35.208 35.208 0 01-4.71-5.09z" fill="url(#paint78_linear_2898379)"/><path d="M243.675 286.741l2.367 1.122a1.44 1.44 0 001.918-.685L264.153 253a1.44 1.44 0 00-.685-1.918l-2.368-1.122a1.44 1.44 0 00-1.918.685l-16.192 34.178a1.44 1.44 0 00.685 1.918z" fill="url(#paint79_radial_2898379)"/><path d="M249.519 290.58s-3.68-.89-3.42-3.6c.26-2.71 5.92-14.32 6.38-15.22.46-.9 7.74-4.47 8.53-4.1.79.37 3 1.55 1.72 4.7l-1.29 3.14s.11 4.06-1.55 5.57c-1.66 1.51-.27 3.83-2.17 5.57-1.9 1.74-2.28 3.66-8.2 3.94z" fill="url(#paint80_linear_2898379)"/><path d="M171.41 261.8s3.61-.55 10.6 8.18c3.73 4.65 8.7 14.19 14 22.85 9.73 16 14.94 17.63 14.94 17.63l26.64-27.64s-2.59 4.73 10 15.49a.94.94 0 00.484.202.94.94 0 00.516-.092s-20.48 30-25.81 36c-5.81 6.6-7.89 7-8.64 7.28-3.73 1.49-17.72-5.7-28.37-19.88-12.49-16.45-14.36-60.02-14.36-60.02z" fill="url(#paint81_linear_2898379)"/><path opacity=".7" d="M205.16 318.46l5.75-8a18.672 18.672 0 01-2.88-2c-.44-.5-2.87 10-2.87 10z" fill="#E0DEDB"/><path d="M127.159 386.3c1.79 5.64 4.18 14.22 5 18.53.19 1 4.59.45 5.6.35 6.9-.69 24.09-.14 33.55-10 17.31-18 42.19-19.69 42.19-19.69s-22.72-31.93-25.34-48c-1.62-9.92-4.54-20.86-5.46-34.69-.39-5.93-.85-9.09-1.66-16.47-.2-1.86-.41-3.59-.74-5.16-1-4.75-3.25-8.15-10.39-9.79l-14.31-.55c-5.58 10.58-23.33 1.84-23.33 1.84s-19 6.21-24.53 12.64c-4.63 5.4-8.76 14.57-5.19 34.44.57 3.18 2.74 6.78 3.73 10.53.99 3.75 5.36 6.16 6.81 10.83 3.53 11.4 2.57 32.11 8.33 47.07 0 .03 4.26 3.45 5.74 8.12z" fill="url(#paint82_linear_2898379)"/><path d="M151.46 243.69s-.23 6.72 4.75 17.78c2 4.54-7.26 5.67-12.29 5.48a20.252 20.252 0 01-11.43-3.7s1.76-4.27-.77-18.22c-2.53-13.95 19.74-1.34 19.74-1.34z" fill="url(#paint83_linear_2898379)"/><path d="M171.42 190.64s-4.88 2.71-33.17.36c-28.29-2.35-24.14 30.7-17.58 38.45 1.36 1.61 6.62 8.51 6.62 8.51l6.14-4.07c.09-1.36-1.71-5.1-1.71-5.1h2.94c3.09-4.61 2.16-15.15 2.16-15.15l22-.47a15.748 15.748 0 006.84-1.63 10.465 10.465 0 003.27-2.58c5.74-6.87 2.49-18.32 2.49-18.32z" fill="url(#paint84_radial_2898379)"/><path d="M136.821 213.6s.93 10.54-2.16 15.15l-1.19.08s-2.47-4.31-6.76-1.62c-1.45.92-1.66 4.43-1.66 4.43l.13 2.6c.053 1.379.384 2.733.974 3.98a10.224 10.224 0 002.456 3.28 3.293 3.293 0 002.06 1c1.3.26 3-1 3.23-1.07l.84 3.24a6 6 0 002.94 3.73c2.24 1.21 4.42 2.34 7 3.61 6.49 3.23 13.81 4.65 16.26 1.86 7.7-8.77 5.66-34.27 4.78-42.41a15.75 15.75 0 01-6.84 1.63l-22.06.51z" fill="url(#paint85_linear_2898379)"/><path d="M126.48 298.01s15.17 49.47 17.63 54.08c0 0-4.45-2.74-5.57-4.53s-12.06-49.55-12.06-49.55z" fill="#E0DEDB"/><path d="M283.332 502.3l-7.48 22s3.15 3.77 15.84 7.16c24.17 6.47 36.43 10 40.13 11.06a1.382 1.382 0 001.7-.89c1-3.05 2.94-11-2.42-15.94-4.56-4.21-14.16-11.33-18.33-13.62-2.19-1.2-1.48-.17-2.51-2.45l-3.74-13.44a1.472 1.472 0 00-1.25-.87c-2.27-.17-10.82-.68-14.15 1.82a81.76 81.76 0 01-7.79 5.17z" fill="url(#paint86_linear_2898379)"/><path d="M223.471 421.73c-20.88-35-60.35-61-75.61-70.87-49.9-32.3-88.43-39.34-89.25-39.37-12.27 27.47-22.4 56.64-18.91 83.14a151.359 151.359 0 0027 68.47 38.477 38.477 0 0023.91 15.27c17.9 3.45 52.09 9.56 92.67 14.43 23 2.76 62.87 5.11 88.21 6.36-.85-3.6-12.78-18.43-48.02-77.43z" fill="url(#paint87_linear_2898379)"/><path d="M115.911 333.14l-6.93-22c-4.13 14.6 8.92 52.12 21.88 60 8.17 5 16.94 10.4 23.15 14.54 15 10 44.33 15.43 45.12 13.29.79-2.14-1.29-6.3-4.1-12.12-2.81-5.82-79.12-53.71-79.12-53.71z" fill="url(#paint88_linear_2898379)"/><path d="M191.001 385.43a12.264 12.264 0 013.38 3.27c1.62 2.16 2.9 6.36 3.69 7.36 1.75 2.22 2.53.1 2.53-1.1a30.612 30.612 0 00-4.19-10.26c-3.14-4.32-6.78-5.27-5.87-4.74a44.634 44.634 0 016.18 4.91c1.72 2 2.06 5.42 3.83 8.05.73 1.08 2.28-.11 2-1.55-.28-1.44-3.25-10.62-5.72-12.16-4-2.46-8.63-3-13-5.48-1.56-.89-9.33-6.18-9.33-6.18l-6.59 11.22s-3.47-1.12.87.8c2.34 1.05 6.5 5.4 8.24 6.52 2.71 1.74 5.72 1.83 7.27 3.14a13.548 13.548 0 013.64 5.64c.79 2.32 2.36 2.88 2.79 2.82.79-.12.16-3.44-.2-5.25s-3.93-5.76-3.93-5.76 3.36 3.14 4.26 5c.52 1.12 2.4 7 3.61 7.28 1.21.28 1.71-1.81 1.44-2.43-.27-.62-.72-3.76-1.59-6a21.714 21.714 0 00-3.31-5.1z" fill="url(#paint89_linear_2898379)"/><path d="M128.031 304.73s14 31.23 16.08 35.46c2.08 4.23 34.65 29.33 34.65 29.33-4.46-.08-8.85 12.26-8.85 12.26s-8.42-5.1-25.8-13.81c-17.38-8.71-25.2-16.35-28.72-24.21-1.59-3.54-3.87-8.67-5.91-13.24a98.612 98.612 0 01-7.79-27.69c-.55-4.33-.8-8.46-.3-11" fill="url(#paint90_linear_2898379)"/><ellipse cx="143.648" cy="486.368" rx="127.961" ry="19.669" transform="rotate(8.5 143.648 486.368)" fill="url(#paint91_radial_2898379)" fill-opacity=".6"/><ellipse cx="201.002" cy="493.965" rx="153.58" ry="22.069" transform="rotate(5.606 201.002 493.965)" fill="url(#paint92_radial_2898379)" fill-opacity=".6"/><defs><linearGradient id="paint1_linear_2898379" x1="54.589" y1="137.125" x2="92.435" y2="430.584" gradientUnits="userSpaceOnUse"><stop offset=".076" stop-color="#D9E9DE"/><stop offset="1" stop-color="#27AE56"/></linearGradient><linearGradient id="paint56_linear_2898379" x1="3967.1" y1="1281.33" x2="3967.49" y2="1270.72" gradientUnits="userSpaceOnUse"><stop stop-color="#F6CFBE"/><stop offset="1" stop-color="#FFE8E1"/></linearGradient><linearGradient id="paint5_linear_2898379" x1="23.656" y1="141.114" x2="61.503" y2="434.574" gradientUnits="userSpaceOnUse"><stop offset=".076" stop-color="#D9E9DE"/><stop offset="1" stop-color="#27AE56"/></linearGradient><linearGradient id="paint6_linear_2898379" x1="57.508" y1="136.748" x2="95.354" y2="430.208" gradientUnits="userSpaceOnUse"><stop offset=".076" stop-color="#D9E9DE"/><stop offset="1" stop-color="#27AE56"/></linearGradient><linearGradient id="paint7_linear_2898379" x1="58.961" y1="89.605" x2="56.257" y2="294.456" gradientUnits="userSpaceOnUse"><stop offset=".076" stop-color="#D9E9DE"/><stop offset="1" stop-color="#27AE56"/></linearGradient><linearGradient id="paint8_linear_2898379" x1="39.855" y1="89.353" x2="37.151" y2="294.204" gradientUnits="userSpaceOnUse"><stop offset=".076" stop-color="#D9E9DE"/><stop offset="1" stop-color="#27AE56"/></linearGradient><linearGradient id="paint9_linear_2898379" x1="25.04" y1="97.147" x2="39.157" y2="277.969" gradientUnits="userSpaceOnUse"><stop offset=".076" stop-color="#D9E9DE"/><stop offset="1" stop-color="#27AE56"/></linearGradient><linearGradient id="paint10_linear_2898379" x1="45.258" y1="89.424" x2="42.555" y2="294.275" gradientUnits="userSpaceOnUse"><stop offset=".076" stop-color="#D9E9DE"/><stop offset="1" stop-color="#27AE56"/></linearGradient><linearGradient id="paint11_linear_2898379" x1="51.131" y1="137.571" x2="88.978" y2="431.03" gradientUnits="userSpaceOnUse"><stop offset=".076" stop-color="#D9E9DE"/><stop offset="1" stop-color="#27AE56"/></linearGradient><linearGradient id="paint12_linear_2898379" x1="58.169" y1="136.663" x2="96.015" y2="430.122" gradientUnits="userSpaceOnUse"><stop offset=".076" stop-color="#D9E9DE"/><stop offset="1" stop-color="#27AE56"/></linearGradient><linearGradient id="paint13_linear_2898379" x1="91.236" y1="132.399" x2="129.083" y2="425.858" gradientUnits="userSpaceOnUse"><stop offset=".076" stop-color="#D9E9DE"/><stop offset="1" stop-color="#27AE56"/></linearGradient><linearGradient id="paint14_linear_2898379" x1="94.681" y1="90.076" x2="91.978" y2="294.927" gradientUnits="userSpaceOnUse"><stop offset=".076" stop-color="#D9E9DE"/><stop offset="1" stop-color="#27AE56"/></linearGradient><linearGradient id="paint15_linear_2898379" x1="74.239" y1="89.807" x2="71.536" y2="294.657" gradientUnits="userSpaceOnUse"><stop offset=".076" stop-color="#D9E9DE"/><stop offset="1" stop-color="#27AE56"/></linearGradient><linearGradient id="paint16_linear_2898379" x1="60.08" y1="94.412" x2="74.197" y2="275.233" gradientUnits="userSpaceOnUse"><stop offset=".076" stop-color="#D9E9DE"/><stop offset="1" stop-color="#27AE56"/></linearGradient><linearGradient id="paint17_linear_2898379" x1="81.718" y1="89.905" x2="79.015" y2="294.756" gradientUnits="userSpaceOnUse"><stop offset=".076" stop-color="#D9E9DE"/><stop offset="1" stop-color="#27AE56"/></linearGradient><linearGradient id="paint18_linear_2898379" x1="87.049" y1="132.939" x2="124.895" y2="426.398" gradientUnits="userSpaceOnUse"><stop offset=".076" stop-color="#D9E9DE"/><stop offset="1" stop-color="#27AE56"/></linearGradient><linearGradient id="paint19_linear_2898379" x1="111.429" y1="129.794" x2="149.275" y2="423.254" gradientUnits="userSpaceOnUse"><stop offset=".076" stop-color="#D9E9DE"/><stop offset="1" stop-color="#27AE56"/></linearGradient><linearGradient id="paint20_linear_2898379" x1="79.655" y1="133.892" x2="117.501" y2="427.352" gradientUnits="userSpaceOnUse"><stop offset=".076" stop-color="#D9E9DE"/><stop offset="1" stop-color="#27AE56"/></linearGradient><linearGradient id="paint21_linear_2898379" x1="95.306" y1="90.085" x2="92.603" y2="294.935" gradientUnits="userSpaceOnUse"><stop offset=".076" stop-color="#D9E9DE"/><stop offset="1" stop-color="#27AE56"/></linearGradient><linearGradient id="paint22_linear_2898379" x1="115.321" y1="90.349" x2="112.617" y2="295.2" gradientUnits="userSpaceOnUse"><stop offset=".076" stop-color="#D9E9DE"/><stop offset="1" stop-color="#27AE56"/></linearGradient><linearGradient id="paint23_linear_2898379" x1="111.421" y1="90.403" x2="125.538" y2="271.225" gradientUnits="userSpaceOnUse"><stop offset=".076" stop-color="#D9E9DE"/><stop offset="1" stop-color="#27AE56"/></linearGradient><linearGradient id="paint24_linear_2898379" x1="109.009" y1="90.265" x2="106.306" y2="295.116" gradientUnits="userSpaceOnUse"><stop offset=".076" stop-color="#D9E9DE"/><stop offset="1" stop-color="#27AE56"/></linearGradient><linearGradient id="paint25_linear_2898379" x1="89.209" y1="132.66" x2="127.055" y2="426.119" gradientUnits="userSpaceOnUse"><stop offset=".076" stop-color="#D9E9DE"/><stop offset="1" stop-color="#27AE56"/></linearGradient><linearGradient id="paint26_linear_2898379" x1="111.201" y1="129.824" x2="149.047" y2="423.283" gradientUnits="userSpaceOnUse"><stop offset=".076" stop-color="#D9E9DE"/><stop offset="1" stop-color="#27AE56"/></linearGradient><linearGradient id="paint27_linear_2898379" x1="21.499" y1="141.392" x2="59.345" y2="434.852" gradientUnits="userSpaceOnUse"><stop offset=".076" stop-color="#D9E9DE"/><stop offset="1" stop-color="#27AE56"/></linearGradient><linearGradient id="paint28_linear_2898379" x1="24.824" y1="97.164" x2="38.941" y2="277.985" gradientUnits="userSpaceOnUse"><stop offset=".076" stop-color="#D9E9DE"/><stop offset="1" stop-color="#27AE56"/></linearGradient><linearGradient id="paint29_linear_2898379" x1="108.917" y1="130.118" x2="146.764" y2="423.578" gradientUnits="userSpaceOnUse"><stop offset=".076" stop-color="#D9E9DE"/><stop offset="1" stop-color="#27AE56"/></linearGradient><linearGradient id="paint30_linear_2898379" x1="128.346" y1="90.52" x2="125.643" y2="295.371" gradientUnits="userSpaceOnUse"><stop offset=".076" stop-color="#D9E9DE"/><stop offset="1" stop-color="#27AE56"/></linearGradient><linearGradient id="paint31_linear_2898379" x1="17.677" y1="141.885" x2="55.523" y2="435.345" gradientUnits="userSpaceOnUse"><stop offset=".076" stop-color="#D9E9DE"/><stop offset="1" stop-color="#27AE56"/></linearGradient><linearGradient id="paint32_linear_2898379" x1="55.641" y1="136.989" x2="93.487" y2="430.449" gradientUnits="userSpaceOnUse"><stop offset=".076" stop-color="#D9E9DE"/><stop offset="1" stop-color="#27AE56"/></linearGradient><linearGradient id="paint33_linear_2898379" x1="21.898" y1="141.341" x2="59.744" y2="434.8" gradientUnits="userSpaceOnUse"><stop offset=".076" stop-color="#D9E9DE"/><stop offset="1" stop-color="#27AE56"/></linearGradient><linearGradient id="paint34_linear_2898379" x1="114.076" y1="90.196" x2="128.193" y2="271.017" gradientUnits="userSpaceOnUse"><stop offset=".076" stop-color="#D9E9DE"/><stop offset="1" stop-color="#27AE56"/></linearGradient><linearGradient id="paint35_linear_2898379" x1="19.057" y1="141.707" x2="56.903" y2="435.167" gradientUnits="userSpaceOnUse"><stop offset=".076" stop-color="#D9E9DE"/><stop offset="1" stop-color="#27AE56"/></linearGradient><linearGradient id="paint36_linear_2898379" x1="53.565" y1="94.92" x2="67.682" y2="275.742" gradientUnits="userSpaceOnUse"><stop offset=".076" stop-color="#D9E9DE"/><stop offset="1" stop-color="#27AE56"/></linearGradient><linearGradient id="paint38_linear_2898379" x1="362.575" y1="230.53" x2="362.574" y2=".66" gradientUnits="userSpaceOnUse"><stop stop-color="#F86E80"/><stop offset=".999" stop-color="#FFD4D8"/></linearGradient><linearGradient id="paint39_linear_2898379" x1="333.519" y1="238.514" x2="617.319" y2="-107.201" gradientUnits="userSpaceOnUse"><stop stop-color="#F86E80"/><stop offset=".999" stop-color="#FFD4D8"/></linearGradient><linearGradient id="paint40_linear_2898379" x1="396.288" y1="373.97" x2="358.927" y2="77.003" gradientUnits="userSpaceOnUse"><stop stop-color="#F86E80"/><stop offset=".999" stop-color="#FFD4D8"/></linearGradient><linearGradient id="paint45_linear_2898379" x1="242.36" y1="512.68" x2="281.11" y2="343" gradientUnits="userSpaceOnUse"><stop stop-color="#77A7FF"/><stop offset="1" stop-color="#BDD4FF"/></linearGradient><linearGradient id="paint46_linear_2898379" x1="217.379" y1="207.67" x2="190.839" y2="228.81" gradientUnits="userSpaceOnUse"><stop stop-color="#fff"/><stop offset="1" stop-color="#BDD4FF"/></linearGradient><linearGradient id="paint47_linear_2898379" x1="275.59" y1="429.83" x2="280.12" y2="345.29" gradientUnits="userSpaceOnUse"><stop stop-color="#C3D6FB" stop-opacity="0"/><stop offset=".02" stop-color="#B4CAF5" stop-opacity=".07"/><stop offset=".08" stop-color="#93B0E6" stop-opacity=".23"/><stop offset=".14" stop-color="#7899D9" stop-opacity=".37"/><stop offset=".2" stop-color="#6288D0" stop-opacity=".47"/><stop offset=".28" stop-color="#537CC9" stop-opacity=".54"/><stop offset=".37" stop-color="#4B75C5" stop-opacity=".59"/><stop offset=".52" stop-color="#4873C4" stop-opacity=".6"/><stop offset=".61" stop-color="#4B75C5" stop-opacity=".59"/><stop offset=".66" stop-color="#557DCA" stop-opacity=".54"/><stop offset=".71" stop-color="#658AD1" stop-opacity=".46"/><stop offset=".76" stop-color="#7C9DDB" stop-opacity=".35"/><stop offset=".8" stop-color="#99B4E8" stop-opacity=".2"/><stop offset=".84" stop-color="#BDD1F8" stop-opacity=".03"/><stop offset=".85" stop-color="#C3D6FB" stop-opacity="0"/></linearGradient><linearGradient id="paint49_linear_2898379" x1="35565.1" y1="47751" x2="35500.3" y2="27401.7" gradientUnits="userSpaceOnUse"><stop stop-color="#305EB2" stop-opacity=".3"/><stop offset=".19" stop-color="#3E69B7" stop-opacity=".28"/><stop offset=".38" stop-color="#6A8BC8" stop-opacity=".22"/><stop offset=".55" stop-color="#B4C4E3" stop-opacity=".11"/><stop offset=".68" stop-color="#fff" stop-opacity="0"/></linearGradient><linearGradient id="paint50_linear_2898379" x1="373.641" y1="304.88" x2="438.461" y2="292.1" gradientUnits="userSpaceOnUse"><stop stop-color="#F86E80"/><stop offset="1" stop-color="#FFD4D8"/></linearGradient><linearGradient id="paint51_linear_2898379" x1="406.855" y1="264.78" x2="406.855" y2="302.164" gradientUnits="userSpaceOnUse"><stop stop-color="#77A7FF"/><stop offset="1" stop-color="#BCD3FF"/></linearGradient><linearGradient id="paint52_linear_2898379" x1="401.417" y1="261.223" x2="401.812" y2="256.293" gradientUnits="userSpaceOnUse"><stop stop-color="#BDD4FF"/><stop offset="1" stop-color="#E7EFFF"/></linearGradient><linearGradient id="paint53_linear_2898379" x1="17314.4" y1="3783.65" x2="17245.8" y2="3645.36" gradientUnits="userSpaceOnUse"><stop stop-color="#BDD4FF"/><stop offset="1" stop-color="#E7EFFF"/></linearGradient><linearGradient id="paint54_linear_2898379" x1="-35022.8" y1="-1839.05" x2="-35022.5" y2="-1842.84" gradientUnits="userSpaceOnUse"><stop stop-color="#77A7FF"/><stop offset="1" stop-color="#BDD4FF"/></linearGradient><linearGradient id="paint55_linear_2898379" x1="390.679" y1="319.02" x2="388.649" y2="299.34" gradientUnits="userSpaceOnUse"><stop stop-color="#F6CFBE"/><stop offset="1" stop-color="#FFE8E1"/></linearGradient><linearGradient id="paint0_linear_2898379" x1="55.902" y1="136.956" x2="93.749" y2="430.415" gradientUnits="userSpaceOnUse"><stop offset=".076" stop-color="#D9E9DE"/><stop offset="1" stop-color="#27AE56"/></linearGradient><linearGradient id="paint57_linear_2898379" x1="2110.31" y1="3386.69" x2="2116.98" y2="3369.8" gradientUnits="userSpaceOnUse"><stop stop-color="#F6CFBE"/><stop offset="1" stop-color="#FFE8E1"/></linearGradient><linearGradient id="paint58_linear_2898379" x1="1550.07" y1="2248.23" x2="1554.88" y2="2236.16" gradientUnits="userSpaceOnUse"><stop stop-color="#F6CFBE"/><stop offset="1" stop-color="#FFE8E1"/></linearGradient><linearGradient id="paint59_linear_2898379" x1="309.753" y1="244.1" x2="307.49" y2="192.243" gradientUnits="userSpaceOnUse"><stop stop-color="#233B67"/><stop offset="1" stop-color="#565378"/></linearGradient><linearGradient id="paint60_linear_2898379" x1="8106.57" y1="8603.3" x2="8248.77" y2="8311.82" gradientUnits="userSpaceOnUse"><stop stop-color="#233B67"/><stop offset="1" stop-color="#565378"/></linearGradient><linearGradient id="paint61_linear_2898379" x1="330.5" y1="365.5" x2="303" y2="272.5" gradientUnits="userSpaceOnUse"><stop stop-color="#F86E80"/><stop offset="1" stop-color="#FFD4D8"/></linearGradient><linearGradient id="paint62_linear_2898379" x1="7531.25" y1="9370.44" x2="7935.33" y2="10016.4" gradientUnits="userSpaceOnUse"><stop stop-color="#F6CFBE"/><stop offset="1" stop-color="#FFE8E1"/></linearGradient><linearGradient id="paint63_linear_2898379" x1="10841.9" y1="13077" x2="11055.3" y2="13394.6" gradientUnits="userSpaceOnUse"><stop stop-color="#F6CFBE"/><stop offset="1" stop-color="#FFE8E1"/></linearGradient><linearGradient id="paint64_linear_2898379" x1="311.408" y1="368.78" x2="226.938" y2="278.91" gradientUnits="userSpaceOnUse"><stop stop-color="#F86E80"/><stop offset=".17" stop-color="#F97989"/><stop offset=".46" stop-color="#FB95A1"/><stop offset=".83" stop-color="#FEC2C9"/><stop offset=".96" stop-color="#FFD4D8"/></linearGradient><linearGradient id="paint65_linear_2898379" x1="412" y1="371" x2="361.83" y2="477.65" gradientUnits="userSpaceOnUse"><stop stop-color="#585378"/><stop offset="1" stop-color="#233B67"/></linearGradient><linearGradient id="paint66_linear_2898379" x1="285" y1="517" x2="445.5" y2="413.5" gradientUnits="userSpaceOnUse"><stop stop-color="#233B67"/><stop offset=".654" stop-color="#565378"/></linearGradient><linearGradient id="paint67_linear_2898379" x1="405.06" y1="513.17" x2="415.41" y2="534.85" gradientUnits="userSpaceOnUse"><stop stop-color="#fff"/><stop offset="1" stop-color="#E8E8E9"/></linearGradient><linearGradient id="paint68_linear_2898379" x1="258.38" y1="381.35" x2="330.99" y2="265.06" gradientUnits="userSpaceOnUse"><stop stop-color="#F86E80"/><stop offset=".2" stop-color="#F97D8D"/><stop offset=".58" stop-color="#FCA3AE"/><stop offset="1" stop-color="#FFD4D8"/></linearGradient><linearGradient id="paint69_linear_2898379" x1="299.684" y1="228.805" x2="299.684" y2="251.651" gradientUnits="userSpaceOnUse"><stop stop-color="#F6CFBE"/><stop offset="1" stop-color="#FFE8E1"/></linearGradient><linearGradient id="paint70_linear_2898379" x1="276.279" y1="235.54" x2="288.359" y2="245.77" gradientUnits="userSpaceOnUse"><stop stop-color="#BDD4FF"/><stop offset="1" stop-color="#fff"/></linearGradient><linearGradient id="paint71_linear_2898379" x1="5938.69" y1="3563.42" x2="5980.81" y2="3721.61" gradientUnits="userSpaceOnUse"><stop stop-color="#fff"/><stop offset="1" stop-color="#fff"/></linearGradient><linearGradient id="paint72_linear_2898379" x1="301.392" y1="189.357" x2="324" y2="199" gradientUnits="userSpaceOnUse"><stop stop-color="#F6CFBE"/><stop offset="1" stop-color="#FFE8E1"/></linearGradient><linearGradient id="paint73_linear_2898379" x1="16769.7" y1="16526.9" x2="16093.7" y2="12820.3" gradientUnits="userSpaceOnUse"><stop stop-color="#233B67"/><stop offset="1" stop-color="#565378"/></linearGradient><linearGradient id="paint74_linear_2898379" x1="282.39" y1="505.73" x2="307.19" y2="486.92" gradientUnits="userSpaceOnUse"><stop stop-color="#BF8E80"/><stop offset="1" stop-color="#855D53"/></linearGradient><linearGradient id="paint75_linear_2898379" x1="279" y1="480" x2="308" y2="357" gradientUnits="userSpaceOnUse"><stop offset=".324" stop-color="#233B67"/><stop offset=".729" stop-color="#565378"/></linearGradient><linearGradient id="paint76_linear_2898379" x1="291.5" y1="431.5" x2="243.011" y2="517.83" gradientUnits="userSpaceOnUse"><stop stop-color="#565378"/><stop offset=".512" stop-color="#233B67"/></linearGradient><linearGradient id="paint77_linear_2898379" x1="353.996" y1="500.296" x2="353.996" y2="543.846" gradientUnits="userSpaceOnUse"><stop stop-color="#fff"/><stop offset="1" stop-color="#F4F4F4"/></linearGradient><linearGradient id="paint78_linear_2898379" x1="-5417.82" y1="9559.08" x2="-4998.89" y2="9752.48" gradientUnits="userSpaceOnUse"><stop stop-color="#BF8E80"/><stop offset="1" stop-color="#855D53"/></linearGradient><linearGradient id="paint80_linear_2898379" x1="4753" y1="6543.12" x2="4376.67" y2="6517.36" gradientUnits="userSpaceOnUse"><stop stop-color="#BF8E80"/><stop offset="1" stop-color="#855D53"/></linearGradient><linearGradient id="paint81_linear_2898379" x1="230" y1="305.5" x2="210" y2="341.893" gradientUnits="userSpaceOnUse"><stop stop-color="#fff"/><stop offset="1" stop-color="#F7F7F7"/></linearGradient><linearGradient id="paint82_linear_2898379" x1="188" y1="339" x2="171" y2="355.5" gradientUnits="userSpaceOnUse"><stop stop-color="#fff"/><stop offset=".851" stop-color="#F1F1F1"/></linearGradient><linearGradient id="paint83_linear_2898379" x1="5858.82" y1="7270.67" x2="5163.36" y2="7210.05" gradientUnits="userSpaceOnUse"><stop stop-color="#BF8E80"/><stop offset="1" stop-color="#855D53"/></linearGradient><linearGradient id="paint85_linear_2898379" x1="171" y1="233" x2="145.844" y2="255.359" gradientUnits="userSpaceOnUse"><stop stop-color="#BF8E80"/><stop offset="1" stop-color="#855D53"/></linearGradient><linearGradient id="paint86_linear_2898379" x1="289.5" y1="537" x2="305" y2="519" gradientUnits="userSpaceOnUse"><stop stop-color="#F1F1F1"/><stop offset="1" stop-color="#fff"/></linearGradient><linearGradient id="paint87_linear_2898379" x1="142" y1="572.5" x2="155" y2="354.5" gradientUnits="userSpaceOnUse"><stop offset=".342" stop-color="#77A7FF"/><stop offset="1" stop-color="#BCD3FF"/></linearGradient><linearGradient id="paint88_linear_2898379" x1="140.471" y1="376.37" x2="199.541" y2="283.64" gradientUnits="userSpaceOnUse"><stop stop-color="#C3D6FB" stop-opacity="0"/><stop offset=".01" stop-color="#B4CAF5" stop-opacity=".07"/><stop offset=".04" stop-color="#93B0E6" stop-opacity=".23"/><stop offset=".06" stop-color="#7899D9" stop-opacity=".37"/><stop offset=".09" stop-color="#6288D0" stop-opacity=".47"/><stop offset=".13" stop-color="#537CC9" stop-opacity=".54"/><stop offset=".17" stop-color="#4B75C5" stop-opacity=".59"/><stop offset=".24" stop-color="#4873C4" stop-opacity=".6"/></linearGradient><linearGradient id="paint89_linear_2898379" x1="7442.44" y1="12128.9" x2="6012.84" y2="12430.3" gradientUnits="userSpaceOnUse"><stop stop-color="#BF8E80"/><stop offset="1" stop-color="#855D53"/></linearGradient><linearGradient id="paint90_linear_2898379" x1="181.5" y1="337" x2="94.5" y2="356.5" gradientUnits="userSpaceOnUse"><stop stop-color="#fff"/><stop offset="1" stop-color="#E8E8E9"/></linearGradient><radialGradient id="paint3_radial_2898379" cx="0" cy="0" r="1" gradientUnits="userSpaceOnUse" gradientTransform="translate(78.917 250.651) scale(214.201)"><stop offset=".076" stop-color="#D9E9DE"/><stop offset="1" stop-color="#27AE56"/></radialGradient><radialGradient id="paint44_radial_2898379" cx="0" cy="0" r="1" gradientUnits="userSpaceOnUse" gradientTransform="matrix(0 43.383 -143.223 0 341.999 518.01)"><stop stop-color="#243B67"/><stop offset=".005" stop-color="#253C68" stop-opacity=".63"/><stop offset="1" stop-color="#fff" stop-opacity="0"/></radialGradient><radialGradient id="paint4_radial_2898379" cx="0" cy="0" r="1" gradientUnits="userSpaceOnUse" gradientTransform="translate(78.917 250.651) scale(214.201)"><stop offset=".076" stop-color="#D9E9DE"/><stop offset="1" stop-color="#27AE56"/></radialGradient><radialGradient id="paint37_radial_2898379" cx="0" cy="0" r="1" gradientUnits="userSpaceOnUse" gradientTransform="matrix(-65.4378 0 0 -5.67603 76.235 368.734)"><stop stop-color="#fff"/><stop offset=".003" stop-color="#FDFDFD"/><stop offset=".123" stop-color="#C3C3C3"/><stop offset=".247" stop-color="#8F8F8F"/><stop offset=".37" stop-color="#636363"/><stop offset=".494" stop-color="#3F3F3F"/><stop offset=".618" stop-color="#242424"/><stop offset=".742" stop-color="#101010"/><stop offset=".867" stop-color="#040404"/><stop offset=".995"/></radialGradient><radialGradient id="paint41_radial_2898379" cx="0" cy="0" r="1" gradientUnits="userSpaceOnUse" gradientTransform="matrix(0 25.0815 -151 0 285.318 497.061)"><stop stop-color="#243B67"/><stop offset=".005" stop-color="#253C68" stop-opacity=".63"/><stop offset="1" stop-color="#fff" stop-opacity="0"/></radialGradient><radialGradient id="paint42_radial_2898379" cx="0" cy="0" r="1" gradientUnits="userSpaceOnUse" gradientTransform="matrix(0 25.0815 -151 0 369.317 493.061)"><stop stop-color="#243B67"/><stop offset=".005" stop-color="#253C68" stop-opacity=".63"/><stop offset="1" stop-color="#fff" stop-opacity="0"/></radialGradient><radialGradient id="paint43_radial_2898379" cx="0" cy="0" r="1" gradientUnits="userSpaceOnUse" gradientTransform="matrix(0 25.0815 -151 0 400.587 480.842)"><stop stop-color="#243B67"/><stop offset=".005" stop-color="#253C68" stop-opacity=".63"/><stop offset="1" stop-color="#fff" stop-opacity="0"/></radialGradient><radialGradient id="paint2_radial_2898379" cx="0" cy="0" r="1" gradientUnits="userSpaceOnUse" gradientTransform="translate(78.917 250.651) scale(214.201)"><stop offset=".076" stop-color="#D9E9DE"/><stop offset="1" stop-color="#27AE56"/></radialGradient><radialGradient id="paint48_radial_2898379" cx="0" cy="0" r="1" gradientUnits="userSpaceOnUse" gradientTransform="translate(259.388 406.92) scale(163.86)"><stop stop-color="#305EB2" stop-opacity=".3"/><stop offset=".19" stop-color="#3E69B7" stop-opacity=".28"/><stop offset=".38" stop-color="#6A8BC8" stop-opacity=".22"/><stop offset=".55" stop-color="#B4C4E3" stop-opacity=".11"/><stop offset=".68" stop-color="#fff" stop-opacity="0"/></radialGradient><radialGradient id="paint79_radial_2898379" cx="0" cy="0" r="1" gradientUnits="userSpaceOnUse" gradientTransform="rotate(154.278 96.12 165.168) scale(15.7516)"><stop offset=".09" stop-color="#77A7FF"/><stop offset="1" stop-color="#4687FF"/></radialGradient><radialGradient id="paint84_radial_2898379" cx="0" cy="0" r="1" gradientUnits="userSpaceOnUse" gradientTransform="rotate(-5.2 2102.815 -1353.284) scale(80.88)"><stop stop-color="#393944"/><stop offset="1" stop-color="#0E1B33"/></radialGradient><radialGradient id="paint91_radial_2898379" cx="0" cy="0" r="1" gradientUnits="userSpaceOnUse" gradientTransform="matrix(0 19.6686 -127.961 0 143.648 486.368)"><stop stop-color="#243B67"/><stop offset=".005" stop-color="#253C68" stop-opacity=".63"/><stop offset="1" stop-color="#fff" stop-opacity="0"/></radialGradient><radialGradient id="paint92_radial_2898379" cx="0" cy="0" r="1" gradientUnits="userSpaceOnUse" gradientTransform="matrix(0 22.069 -153.58 0 201.002 493.965)"><stop stop-color="#243B67"/><stop offset=".005" stop-color="#253C68" stop-opacity=".63"/><stop offset="1" stop-color="#fff" stop-opacity="0"/></radialGradient><clipPath id="clip0_2898379"><path fill="#fff" d="M0 0h555v555H0z"/></clipPath></defs></svg>